<svg width="103" height="91" viewBox="0 0 103 91" fill="none" xmlns="http://www.w3.org/2000/svg">
<g id="002-abstract" clip-path="url(#clip0_861_3535)">
<path id="Vector" d="M103 74.3341C103 83.538 95.3139 91.0005 85.8339 91.0005C76.3529 91.0005 68.6675 83.538 68.6675 74.3341C68.6675 65.1293 76.3529 57.6677 85.8339 57.6677C95.3139 57.6677 103 65.1293 103 74.3341Z" fill="#F6F7F9" fill-opacity="0.65"/>
<path id="Vector_2" d="M81.5422 34.7497C81.5422 42.8045 74.8175 49.3333 66.5211 49.3333C58.2247 49.3333 51.5 42.8045 51.5 34.7497C51.5 26.6959 58.2247 20.1661 66.5211 20.1661C74.8175 20.1661 81.5422 26.6959 81.5422 34.7497Z" fill="#F6F7F9" fill-opacity="0.65"/>
<path id="Vector_3" d="M51.5002 65.9997C51.5002 79.807 39.9711 91.0003 25.7496 91.0003C11.5291 91.0003 0 79.807 0 65.9997C0 52.1924 11.5291 41.0001 25.7496 41.0001C39.9711 41.0001 51.5002 52.1924 51.5002 65.9997Z" fill="#F6F7F9" fill-opacity="0.65"/>
<path id="Vector_4" d="M42.918 11.834C42.918 23.34 33.3102 32.6679 21.459 32.6679C9.60773 32.6679 0 23.34 0 11.834C0 0.327888 9.60773 -9 21.459 -9C33.3102 -9 42.918 0.327888 42.918 11.834Z" fill="#F6F7F9" fill-opacity="0.65"/>
<path id="Vector_5" d="M103.001 3.49981C103.001 10.4035 97.2356 15.9996 90.1248 15.9996C83.014 15.9996 77.25 10.4035 77.25 3.49981C77.25 -3.40384 83.014 -9 90.1248 -9C97.2356 -9 103.001 -3.40384 103.001 3.49981Z" fill="#F6F7F9" fill-opacity="0.65"/>
<path id="Vector_6" d="M98.7077 45.1658C98.7077 47.467 96.7864 49.3324 94.4161 49.3324C92.0459 49.3324 90.1245 47.467 90.1245 45.1658C90.1245 42.8655 92.0459 41.0001 94.4161 41.0001C96.7864 41.0001 98.7077 42.8655 98.7077 45.1658Z" fill="#F6F7F9" fill-opacity="0.65"/>
<path id="Vector_7" d="M66.5213 5.58341C66.5213 9.03571 63.6393 11.8338 60.0834 11.8338C56.5285 11.8338 53.6465 9.03571 53.6465 5.58341C53.6465 2.13207 56.5285 -0.666016 60.0834 -0.666016C63.6393 -0.666016 66.5213 2.13207 66.5213 5.58341Z" fill="#F6F7F9" fill-opacity="0.65"/>
</g>
<defs>
<clipPath id="clip0_861_3535">
<rect width="103" height="100" fill="white" transform="translate(0 -9)"/>
</clipPath>
</defs>
</svg>
