<svg width="18" height="19" viewBox="0 0 18 19" fill="none" xmlns="http://www.w3.org/2000/svg">
<g id="vuesax/outline/edit">
<g id="edit">
<path id="Vector" d="M11.25 17.5625H6.75C2.6775 17.5625 0.9375 15.8225 0.9375 11.75V7.25C0.9375 3.1775 2.6775 1.4375 6.75 1.4375H8.25C8.5575 1.4375 8.8125 1.6925 8.8125 2C8.8125 2.3075 8.5575 2.5625 8.25 2.5625H6.75C3.2925 2.5625 2.0625 3.7925 2.0625 7.25V11.75C2.0625 15.2075 3.2925 16.4375 6.75 16.4375H11.25C14.7075 16.4375 15.9375 15.2075 15.9375 11.75V10.25C15.9375 9.9425 16.1925 9.6875 16.5 9.6875C16.8075 9.6875 17.0625 9.9425 17.0625 10.25V11.75C17.0625 15.8225 15.3225 17.5625 11.25 17.5625Z" fill="#292D32"/>
<path id="Vector_2" d="M6.375 13.7675C5.9175 13.7675 5.4975 13.6025 5.19 13.3025C4.8225 12.935 4.665 12.4025 4.7475 11.84L5.07 9.58251C5.13 9.14751 5.415 8.58501 5.7225 8.27751L11.6325 2.36751C13.125 0.875013 14.64 0.875013 16.1325 2.36751C16.95 3.18501 17.3175 4.01751 17.2425 4.85001C17.175 5.52501 16.815 6.18501 16.1325 6.86001L10.2225 12.77C9.915 13.0775 9.3525 13.3625 8.9175 13.4225L6.66 13.745C6.5625 13.7675 6.465 13.7675 6.375 13.7675ZM12.4275 3.16251L6.5175 9.07251C6.375 9.21501 6.21 9.54501 6.18 9.74001L5.8575 11.9975C5.8275 12.215 5.8725 12.395 5.985 12.5075C6.0975 12.62 6.2775 12.665 6.495 12.635L8.7525 12.3125C8.9475 12.2825 9.285 12.1175 9.42 11.975L15.33 6.06501C15.8175 5.57751 16.0725 5.14251 16.11 4.73751C16.155 4.25001 15.9 3.73251 15.33 3.15501C14.13 1.95501 13.305 2.29251 12.4275 3.16251Z" fill="#292D32"/>
<path id="Vector_3" d="M14.8877 7.87249C14.8352 7.87249 14.7827 7.86499 14.7377 7.84999C12.7652 7.29499 11.1977 5.72749 10.6427 3.75499C10.5602 3.45499 10.7327 3.14749 11.0327 3.05749C11.3327 2.97499 11.6402 3.14749 11.7227 3.44749C12.1727 5.04499 13.4402 6.31249 15.0377 6.76249C15.3377 6.84499 15.5102 7.15999 15.4277 7.45999C15.3602 7.71499 15.1352 7.87249 14.8877 7.87249Z" fill="#292D32"/>
</g>
</g>
</svg>
