<svg width="18" height="19" viewBox="0 0 18 19" fill="none" xmlns="http://www.w3.org/2000/svg">
<g id="excel-svgrepo-com 1">
<path id="Vector" d="M11.0144 9.13435L4.78809 8.03748V16.1425C4.78816 16.2306 4.80558 16.3178 4.83934 16.3991C4.8731 16.4804 4.92255 16.5543 4.98487 16.6165C5.04718 16.6787 5.12114 16.728 5.20252 16.7617C5.28389 16.7953 5.3711 16.8125 5.45915 16.8125H16.2029C16.291 16.8127 16.3784 16.7955 16.4599 16.762C16.5414 16.7284 16.6155 16.6791 16.6779 16.6169C16.7403 16.5547 16.7899 16.4807 16.8237 16.3993C16.8576 16.318 16.875 16.2307 16.8751 16.1425V13.1562L11.0144 9.13435Z" fill="#185C37"/>
<path id="Vector_2" d="M11.0144 2.1875H5.45915C5.3711 2.18743 5.28389 2.2047 5.20252 2.23832C5.12114 2.27195 5.04718 2.32128 4.98487 2.38349C4.92255 2.4457 4.8731 2.51957 4.83934 2.60089C4.80558 2.68221 4.78816 2.76939 4.78809 2.85744V5.84375L11.0144 9.5L14.3112 10.5969L16.8751 9.5V5.84375L11.0144 2.1875Z" fill="#21A366"/>
<path id="Vector_3" d="M4.78809 5.84375H11.0144V9.5H4.78809V5.84375Z" fill="#107C41"/>
<path id="Vector_4" opacity="0.1" d="M9.24421 5.11255H4.78809V14.2532H9.24421C9.42177 14.2523 9.59184 14.1815 9.71755 14.0561C9.84327 13.9307 9.91451 13.7608 9.91584 13.5832V5.78249C9.91451 5.60493 9.84327 5.43504 9.71755 5.30964C9.59184 5.18424 9.42177 5.11343 9.24421 5.11255Z" fill="black"/>
<path id="Vector_5" opacity="0.2" d="M8.87802 5.47815H4.78809V14.6188H8.87802C9.05559 14.6179 9.22565 14.5471 9.35136 14.4217C9.47708 14.2963 9.54832 14.1264 9.54965 13.9488V6.14809C9.54832 5.97053 9.47708 5.80064 9.35136 5.67524C9.22565 5.54985 9.05559 5.47903 8.87802 5.47815Z" fill="black"/>
<path id="Vector_6" opacity="0.2" d="M8.87802 5.47815H4.78809V13.8875H8.87802C9.05559 13.8866 9.22565 13.8158 9.35136 13.6904C9.47708 13.565 9.54832 13.3951 9.54965 13.2176V6.14809C9.54832 5.97053 9.47708 5.80064 9.35136 5.67524C9.22565 5.54985 9.05559 5.47903 8.87802 5.47815Z" fill="black"/>
<path id="Vector_7" opacity="0.2" d="M8.51184 5.47815H4.78809V13.8875H8.51184C8.6894 13.8866 8.85946 13.8158 8.98518 13.6904C9.11089 13.565 9.18213 13.3951 9.18346 13.2176V6.14809C9.18213 5.97053 9.11089 5.80064 8.98518 5.67524C8.85946 5.54985 8.6894 5.47903 8.51184 5.47815Z" fill="black"/>
<path id="Vector_8" d="M1.79663 5.47815H8.51175C8.68963 5.478 8.86029 5.54848 8.98623 5.6741C9.11217 5.79972 9.18308 5.97021 9.18338 6.14809V12.852C9.18308 13.0298 9.11217 13.2003 8.98623 13.3259C8.86029 13.4516 8.68963 13.522 8.51175 13.5219H1.79663C1.70853 13.522 1.62126 13.5048 1.53982 13.4712C1.45838 13.4376 1.38435 13.3883 1.32198 13.3261C1.25961 13.2639 1.21011 13.19 1.17631 13.1086C1.14251 13.0273 1.12507 12.9401 1.125 12.852V6.14809C1.12507 6.05999 1.14251 5.97277 1.17631 5.89141C1.21011 5.81005 1.25961 5.73616 1.32198 5.67394C1.38435 5.61172 1.45838 5.56241 1.53982 5.52881C1.62126 5.49522 1.70853 5.478 1.79663 5.47815Z" fill="url(#paint0_linear_121_566)"/>
<path id="Vector_9" d="M3.2063 11.6785L4.61874 9.49379L3.32499 7.32141H4.36392L5.06986 8.71247C5.13511 8.8441 5.18236 8.94197 5.20374 9.00722H5.2133C5.25942 8.90147 5.30836 8.79966 5.35955 8.7001L6.11442 7.32366H7.07067L5.74374 9.48366L7.10442 11.6802H6.08686L5.27124 10.1553C5.23337 10.0897 5.20118 10.021 5.17505 9.94997H5.16155C5.13777 10.0192 5.10606 10.0855 5.06705 10.1474L4.22724 11.6785H3.2063Z" fill="white"/>
<path id="Vector_10" d="M16.2035 2.1875H11.0144V5.84375H16.8751V2.85744C16.875 2.76934 16.8576 2.68212 16.8238 2.60076C16.79 2.5194 16.7405 2.44551 16.6781 2.38329C16.6157 2.32107 16.5417 2.27176 16.4603 2.23816C16.3788 2.20457 16.2916 2.18735 16.2035 2.1875Z" fill="#33C481"/>
<path id="Vector_11" d="M11.0144 9.5H16.8751V13.1562H11.0144V9.5Z" fill="#107C41"/>
</g>
<defs>
<linearGradient id="paint0_linear_121_566" x1="2.52788" y1="4.95165" x2="7.7805" y2="14.0484" gradientUnits="userSpaceOnUse">
<stop stop-color="#18884F"/>
<stop offset="0.5" stop-color="#117E43"/>
<stop offset="1" stop-color="#0B6631"/>
</linearGradient>
</defs>
</svg>
