<svg width="24" height="24" viewBox="0 0 24 24" fill="none" xmlns="http://www.w3.org/2000/svg">
<g id="vuesax/outline/home">
<g id="home">
<path id="Vector" d="M12 18.75C11.59 18.75 11.25 18.41 11.25 18V15C11.25 14.59 11.59 14.25 12 14.25C12.41 14.25 12.75 14.59 12.75 15V18C12.75 18.41 12.41 18.75 12 18.75Z" fill="#A9ADC3"/>
<path id="Vector_2" d="M17.6 22.5598H6.4C4.58 22.5598 2.92 21.1598 2.62 19.3698L1.29 11.3998C1.07 10.1598 1.68 8.56982 2.67 7.77982L9.6 2.22982C10.94 1.14982 13.05 1.15982 14.4 2.23982L21.33 7.77982C22.31 8.56982 22.91 10.1598 22.71 11.3998L21.38 19.3598C21.08 21.1298 19.38 22.5598 17.6 22.5598ZM11.99 2.92982C11.46 2.92982 10.93 3.08982 10.54 3.39982L3.61 8.95982C3.05 9.40982 2.65 10.4498 2.77 11.1598L4.1 19.1198C4.28 20.1698 5.33 21.0598 6.4 21.0598H17.6C18.67 21.0598 19.72 20.1698 19.9 19.1098L21.23 11.1498C21.34 10.4498 20.94 9.38982 20.39 8.94982L13.46 3.40982C13.06 3.08982 12.52 2.92982 11.99 2.92982Z" fill="#A9ADC3"/>
</g>
</g>
</svg>
