<svg width="34" height="34" viewBox="0 0 34 34" fill="none" xmlns="http://www.w3.org/2000/svg">
<g id="Mail-opened 1" clip-path="url(#clip0_861_3545)">
<g id="Stockholm icons / Communication / Mail opened">
<path id="Combined Shape" opacity="0.3" fill-rule="evenodd" clip-rule="evenodd" d="M8.50016 2.83337H25.5002C26.2826 2.83337 26.9168 3.46764 26.9168 4.25004V17C26.9168 17.7824 26.2826 18.4167 25.5002 18.4167H8.50016C7.71776 18.4167 7.0835 17.7824 7.0835 17V4.25004C7.0835 3.46764 7.71776 2.83337 8.50016 2.83337ZM10.6252 7.08337C10.234 7.08337 9.91683 7.40051 9.91683 7.79171C9.91683 8.18291 10.234 8.50004 10.6252 8.50004H19.1252C19.5164 8.50004 19.8335 8.18291 19.8335 7.79171C19.8335 7.40051 19.5164 7.08337 19.1252 7.08337H10.6252ZM10.6252 9.91671C10.234 9.91671 9.91683 10.2338 9.91683 10.625C9.91683 11.0162 10.234 11.3334 10.6252 11.3334H14.8752C15.2664 11.3334 15.5835 11.0162 15.5835 10.625C15.5835 10.2338 15.2664 9.91671 14.8752 9.91671H10.6252Z" fill="#007C92"/>
<path id="Combined Shape_2" fill-rule="evenodd" clip-rule="evenodd" d="M5.37306 9.3114L17 17.7086L28.6269 9.3114C28.9441 9.08236 29.3869 9.15377 29.6159 9.47091C29.7031 9.59162 29.75 9.73673 29.75 9.88563V24.0836C29.75 25.6484 28.4815 26.917 26.9167 26.917H7.08333C5.51853 26.917 4.25 25.6484 4.25 24.0836V9.88563C4.25 9.49443 4.56713 9.1773 4.95833 9.1773C5.10723 9.1773 5.25235 9.22422 5.37306 9.3114Z" fill="#007C92"/>
</g>
</g>
<defs>
<clipPath id="clip0_861_3545">
<rect width="34" height="34" fill="white"/>
</clipPath>
</defs>
</svg>
