<svg width="25" height="25" viewBox="0 0 25 25" fill="none" xmlns="http://www.w3.org/2000/svg">
<g id="vuesax/outline/more">
<g id="more">
<path id="Vector" d="M14.7893 19.1166C14.7772 20.6365 13.5374 21.8567 12.0175 21.8447C10.4975 21.8326 9.27735 20.5928 9.28943 19.0729C9.30151 17.5529 10.5412 16.3328 12.0612 16.3448C13.5811 16.3569 14.8013 17.5966 14.7893 19.1166ZM10.7894 19.0848C10.7839 19.7748 11.3394 20.3392 12.0294 20.3447C12.7194 20.3502 13.2838 19.7947 13.2893 19.1047C13.2948 18.4147 12.7393 17.8503 12.0493 17.8448C11.3593 17.8393 10.7949 18.3948 10.7894 19.0848Z" fill="#A9ADC3"/>
<path id="Vector_2" d="M14.9006 5.11704C14.8885 6.63699 13.6488 7.85718 12.1288 7.8451C10.6089 7.83302 9.38868 6.59329 9.40076 5.07334C9.41283 3.55338 10.6526 2.3332 12.1725 2.34527C13.6925 2.35735 14.9127 3.59709 14.9006 5.11704ZM10.9007 5.08526C10.8952 5.77523 11.4508 6.33967 12.1407 6.34515C12.8307 6.35063 13.3951 5.7951 13.4006 5.10512C13.4061 4.41514 12.8506 3.85071 12.1606 3.84523C11.4706 3.83974 10.9062 4.39528 10.9007 5.08526Z" fill="#A9ADC3"/>
<path id="Vector_3" d="M14.8449 12.1168C14.8328 13.6368 13.5931 14.857 12.0732 14.8449C10.5532 14.8328 9.33302 13.5931 9.34509 12.0731C9.35717 10.5532 10.5969 9.33298 12.1169 9.34505C13.6368 9.35713 14.857 10.5969 14.8449 12.1168ZM10.845 12.085C10.8396 12.775 11.3951 13.3394 12.0851 13.3449C12.7751 13.3504 13.3395 12.7949 13.345 12.1049C13.3504 11.4149 12.7949 10.8505 12.1049 10.845C11.415 10.8395 10.8505 11.3951 10.845 12.085Z" fill="#A9ADC3"/>
</g>
</g>
</svg>
