<svg width="158" height="154" viewBox="0 0 158 154" fill="none" xmlns="http://www.w3.org/2000/svg">
<g clip-path="url(#clip0_635_1504)">
<path d="M100.305 34.6355H57.7311C56.7609 34.6367 55.8308 35.022 55.1447 35.707C54.4587 36.392 54.0728 37.3208 54.0716 38.2895V132.771L53.5837 132.92L43.1395 136.114C42.6446 136.264 42.1099 136.213 41.653 135.97C41.1961 135.728 40.8542 135.314 40.7024 134.82L9.63594 33.493C9.48476 32.9987 9.53629 32.4648 9.7792 32.0084C10.0221 31.5521 10.4365 31.2107 10.9314 31.0594L27.0258 26.1386L73.6839 11.878L89.7781 6.9572C90.0231 6.88193 90.2805 6.85563 90.5356 6.8798C90.7907 6.90397 91.0385 6.97813 91.2649 7.09806C91.4913 7.21798 91.6918 7.3813 91.8549 7.57867C92.018 7.77604 92.1405 8.00359 92.2154 8.2483L100.156 34.1483L100.305 34.6355Z" fill="#FFF9F0"/>
<path d="M109.596 34.1469L100.025 2.93146C99.8656 2.41135 99.6053 1.92767 99.2588 1.50806C98.9123 1.08844 98.4864 0.741122 98.0054 0.485937C97.5244 0.230751 96.9978 0.0727022 96.4556 0.0208271C95.9134 -0.0310481 95.3663 0.0242672 94.8455 0.183606L72.2178 7.09952L25.5622 21.3625L2.93456 28.2809C1.88339 28.6032 1.00324 29.3288 0.487291 30.2984C-0.0286586 31.268 -0.138254 32.4024 0.182567 33.4526L32.8933 140.134C33.1539 140.982 33.6798 141.724 34.3937 142.251C35.1077 142.779 35.9721 143.064 36.8602 143.065C37.2712 143.065 37.68 143.003 38.0726 142.882L53.5839 138.141L54.0718 137.99V137.481L53.5839 137.63L37.9287 142.417C37.0009 142.699 35.9988 142.602 35.1421 142.148C34.2855 141.694 33.6444 140.919 33.3593 139.993L0.651078 33.3089C0.509845 32.8501 0.460621 32.3681 0.506224 31.8904C0.551828 31.4126 0.691358 30.9485 0.916834 30.5247C1.14231 30.1009 1.4493 29.7256 1.82023 29.4204C2.19115 29.1153 2.61872 28.8861 3.07845 28.7462L25.7061 21.8278L72.3619 7.56724L94.9895 0.648894C95.3382 0.542634 95.7008 0.488454 96.0653 0.488115C96.8478 0.489869 97.6091 0.741745 98.2377 1.20685C98.8664 1.67195 99.3294 2.32585 99.559 3.07275L109.086 34.1469L109.237 34.6341H109.744L109.596 34.1469Z" fill="#007C92" fill-opacity="0.5"/>
<path d="M29.9293 31.1378C29.4591 31.1374 29.0013 30.9866 28.6233 30.7075C28.2452 30.4284 27.9666 30.0356 27.8284 29.5868L24.6861 19.338C24.6016 19.0627 24.5723 18.7734 24.5999 18.4868C24.6274 18.2002 24.7112 17.9218 24.8464 17.6676C24.9817 17.4133 25.1658 17.1881 25.3883 17.0049C25.6107 16.8217 25.8671 16.684 26.1428 16.5998L69.0657 3.47837C69.6225 3.3087 70.2239 3.36657 70.7381 3.63926C71.2522 3.91195 71.637 4.37718 71.808 4.93285L74.9503 15.1818C75.1201 15.7378 75.0621 16.3384 74.7891 16.8517C74.516 17.3651 74.0501 17.7493 73.4937 17.9201L30.5708 31.0415C30.3629 31.1052 30.1467 31.1377 29.9293 31.1378Z" fill="#007C92"/>
<path d="M46.391 10.9512C49.0858 10.9512 51.2703 8.76988 51.2703 6.07911C51.2703 3.38833 49.0858 1.20703 46.391 1.20703C43.6962 1.20703 41.5117 3.38833 41.5117 6.07911C41.5117 8.76988 43.6962 10.9512 46.391 10.9512Z" fill="#007C92"/>
<path d="M46.3905 9.1642C48.0969 9.1642 49.4802 7.78293 49.4802 6.07905C49.4802 4.37517 48.0969 2.9939 46.3905 2.9939C44.6841 2.9939 43.3008 4.37517 43.3008 6.07905C43.3008 7.78293 44.6841 9.1642 46.3905 9.1642Z" fill="white"/>
<path d="M147.022 141.82H64.562C64.0122 141.82 63.4851 141.601 63.0963 141.213C62.7076 140.825 62.4889 140.299 62.4883 139.75V41.0902C62.4889 40.5412 62.7076 40.0149 63.0963 39.6267C63.4851 39.2385 64.0122 39.0201 64.562 39.0195H147.022C147.572 39.0202 148.099 39.2385 148.487 39.6267C148.876 40.0149 149.095 40.5412 149.096 41.0902V139.75C149.095 140.299 148.876 140.825 148.487 141.213C148.099 141.601 147.572 141.82 147.022 141.82Z" fill="#FFF9F0"/>
<path d="M109.074 33.8262H57.7079C56.6082 33.8277 55.5539 34.2527 54.7763 35.008C53.9987 35.7633 53.5611 36.7873 53.5596 37.8555V134.511L54.0476 134.367V37.8555C54.0488 36.9129 54.4348 36.0093 55.121 35.3428C55.8072 34.6763 56.7375 34.3014 57.7079 34.3002H109.226L109.074 33.8262ZM153.852 33.8262H57.7079C56.6082 33.8277 55.5539 34.2527 54.7763 35.008C53.9987 35.7633 53.5611 36.7873 53.5596 37.8555V146.41C53.5611 147.478 53.9987 148.502 54.7763 149.257C55.5539 150.012 56.6082 150.437 57.7079 150.439H153.852C154.952 150.437 156.006 150.012 156.784 149.257C157.561 148.502 157.999 147.478 158 146.41V37.8555C157.999 36.7873 157.561 35.7633 156.784 35.008C156.006 34.2527 154.952 33.8277 153.852 33.8262ZM157.512 146.41C157.511 147.352 157.125 148.256 156.439 148.922C155.753 149.589 154.822 149.964 153.852 149.965H57.7079C56.7375 149.964 55.8072 149.589 55.121 148.922C54.4348 148.256 54.0488 147.352 54.0476 146.41V37.8555C54.0488 36.9129 54.4348 36.0093 55.121 35.3428C55.8072 34.6763 56.7375 34.3014 57.7079 34.3002H153.852C154.822 34.3014 155.753 34.6763 156.439 35.3428C157.125 36.0093 157.511 36.9129 157.512 37.8555V146.41Z" fill="#007C92" fill-opacity="0.5"/>
<path d="M128.236 44.8652H83.347C82.7649 44.8645 82.2068 44.6333 81.7952 44.2223C81.3836 43.8113 81.152 43.254 81.1514 42.6727V31.9542C81.152 31.3729 81.3836 30.8156 81.7952 30.4046C82.2068 29.9936 82.7649 29.7624 83.347 29.7617H128.236C128.819 29.7624 129.377 29.9936 129.788 30.4046C130.2 30.8156 130.431 31.3729 130.432 31.9542V42.6727C130.431 43.254 130.2 43.8113 129.788 44.2223C129.377 44.6333 128.819 44.8645 128.236 44.8652Z" fill="#007C92"/>
<path d="M105.792 30.4942C108.487 30.4942 110.672 28.3129 110.672 25.6221C110.672 22.9313 108.487 20.75 105.792 20.75C103.098 20.75 100.913 22.9313 100.913 25.6221C100.913 28.3129 103.098 30.4942 105.792 30.4942Z" fill="#007C92"/>
<path d="M105.791 28.5874C107.433 28.5874 108.763 27.2588 108.763 25.6199C108.763 23.981 107.433 22.6523 105.791 22.6523C104.15 22.6523 102.819 23.981 102.819 25.6199C102.819 27.2588 104.15 28.5874 105.791 28.5874Z" fill="white"/>
</g>
<defs>
<clipPath id="clip0_635_1504">
<rect width="158" height="154" fill="white"/>
</clipPath>
</defs>
</svg>
