<svg width="28" height="28" viewBox="0 0 28 28" fill="none" xmlns="http://www.w3.org/2000/svg">
<g id="vuesax/outline/receipt-text">
<g id="receipt-text">
<path id="Vector" d="M22.6565 13.7084H18.6665C18.1882 13.7084 17.7915 13.3117 17.7915 12.8334V4.67837C17.7915 3.81504 18.1298 3.01004 18.7365 2.40337C19.3432 1.79671 20.1482 1.45837 21.0115 1.45837H21.0232C22.4815 1.47004 23.8581 2.04171 24.9081 3.08004C25.9581 4.14171 26.5298 5.54171 26.5298 7.00004V9.82337C26.5415 12.145 24.9782 13.7084 22.6565 13.7084ZM19.5415 11.9584H22.6565C24.0098 11.9584 24.7915 11.1767 24.7915 9.82337V7.00004C24.7915 5.99671 24.3948 5.04004 23.6832 4.31671C22.9715 3.61671 22.0265 3.22004 21.0232 3.20837C21.0232 3.20837 21.0232 3.20837 21.0115 3.20837C20.6265 3.20837 20.2532 3.36004 19.9732 3.64004C19.6932 3.92004 19.5415 4.28171 19.5415 4.67837V11.9584Z" fill="#007C92"/>
<path id="Vector_2" d="M10.4997 27.2184C9.95138 27.2184 9.43806 27.0084 9.05306 26.6117L7.11635 24.6634C7.01135 24.5584 6.84807 24.5467 6.7314 24.64L4.73638 26.1334C4.11805 26.6 3.30136 26.6817 2.60136 26.3317C1.90136 25.9817 1.46973 25.2817 1.46973 24.5V7.00004C1.46973 3.47671 3.48806 1.45837 7.01139 1.45837H21.0114C21.4897 1.45837 21.8864 1.85504 21.8864 2.33337C21.8864 2.81171 21.4897 3.20837 21.0114 3.20837C20.2064 3.20837 19.5531 3.86171 19.5531 4.66671V24.5C19.5531 25.2817 19.1214 25.9817 18.4214 26.3317C17.733 26.6817 16.9047 26.6 16.2864 26.1334L14.2914 24.64C14.1747 24.5467 14.0114 24.57 13.918 24.6634L11.958 26.6234C11.5614 27.0084 11.048 27.2184 10.4997 27.2184ZM6.89468 22.8317C7.43135 22.8317 7.95635 23.03 8.35302 23.4384L10.2897 25.3867C10.3597 25.4567 10.453 25.4684 10.4997 25.4684C10.5464 25.4684 10.6397 25.4567 10.7097 25.3867L12.6697 23.4267C13.393 22.7034 14.5364 22.6334 15.3414 23.2517L17.3247 24.7334C17.453 24.8267 17.5697 24.7917 17.628 24.7567C17.6864 24.7217 17.7914 24.6517 17.7914 24.5V4.66671C17.7914 4.14171 17.9197 3.64004 18.1414 3.20837H6.99971C4.40971 3.20837 3.20805 4.41004 3.20805 7.00004V24.5C3.20805 24.6634 3.31307 24.7334 3.3714 24.7684C3.4414 24.8034 3.55808 24.8267 3.67474 24.7334L5.6697 23.24C6.03136 22.9717 6.46302 22.8317 6.89468 22.8317Z" fill="#007C92"/>
<path id="Vector_3" d="M14 11.375H7C6.52167 11.375 6.125 10.9783 6.125 10.5C6.125 10.0217 6.52167 9.625 7 9.625H14C14.4783 9.625 14.875 10.0217 14.875 10.5C14.875 10.9783 14.4783 11.375 14 11.375Z" fill="#007C92"/>
<path id="Vector_4" d="M13.125 16.0416H7.875C7.39667 16.0416 7 15.645 7 15.1666C7 14.6883 7.39667 14.2916 7.875 14.2916H13.125C13.6033 14.2916 14 14.6883 14 15.1666C14 15.645 13.6033 16.0416 13.125 16.0416Z" fill="#007C92"/>
</g>
</g>
</svg>
