<svg width="20" height="21" viewBox="0 0 20 21" fill="none" xmlns="http://www.w3.org/2000/svg">
<g id="Regular icon">
<path id="Shape" d="M8.5 4.5H11.5C11.5 3.67157 10.8284 3 10 3C9.17157 3 8.5 3.67157 8.5 4.5ZM7.5 4.5C7.5 3.11929 8.61929 2 10 2C11.3807 2 12.5 3.11929 12.5 4.5H17.5C17.7761 4.5 18 4.72386 18 5C18 5.27614 17.7761 5.5 17.5 5.5H16.4456L15.2521 15.8439C15.0774 17.3576 13.7957 18.5 12.2719 18.5H7.72813C6.20431 18.5 4.92256 17.3576 4.7479 15.8439L3.55437 5.5H2.5C2.22386 5.5 2 5.27614 2 5C2 4.72386 2.22386 4.5 2.5 4.5H7.5ZM5.74131 15.7292C5.85775 16.7384 6.71225 17.5 7.72813 17.5H12.2719C13.2878 17.5 14.1422 16.7384 14.2587 15.7292L15.439 5.5H4.56101L5.74131 15.7292ZM8.5 8C8.77614 8 9 8.22386 9 8.5V14.5C9 14.7761 8.77614 15 8.5 15C8.22386 15 8 14.7761 8 14.5V8.5C8 8.22386 8.22386 8 8.5 8ZM12 8.5C12 8.22386 11.7761 8 11.5 8C11.2239 8 11 8.22386 11 8.5V14.5C11 14.7761 11.2239 15 11.5 15C11.7761 15 12 14.7761 12 14.5V8.5Z" fill="#CC232A"/>
</g>
</svg>
