<svg width="28" height="28" viewBox="0 0 28 28" fill="none" xmlns="http://www.w3.org/2000/svg">
<g id="vuesax/outline/wallet-add">
<g id="wallet-add">
<path id="Vector" d="M7.22156 9.11161C6.94156 9.11161 6.68489 8.98328 6.50989 8.74994C6.31156 8.48161 6.28823 8.13158 6.43989 7.83991C6.63823 7.44324 6.91823 7.05828 7.27989 6.70828L11.0716 2.90493C13.0082 0.979932 16.1582 0.979932 18.0949 2.90493L20.1366 4.98163C20.9999 5.8333 21.5249 6.97663 21.5832 8.18997C21.5949 8.4583 21.4899 8.71494 21.2916 8.88994C21.0932 9.06494 20.8249 9.1466 20.5682 9.09993C20.3349 9.06493 20.0899 9.05329 19.8332 9.05329H8.16656C7.88656 9.05329 7.61823 9.07661 7.34989 9.11161C7.31489 9.11161 7.26823 9.11161 7.22156 9.11161ZM9.16989 7.29161H19.6232C19.4716 6.89494 19.2266 6.53329 18.8999 6.20662L16.8466 4.12992C15.5982 2.89325 13.5566 2.89325 12.2966 4.12992L9.16989 7.29161Z" fill="#007C92"/>
<path id="Vector_2" d="M5.83317 27.7083C3.8965 27.7083 2.0765 26.6817 1.0965 25.0133C0.571504 24.1733 0.291504 23.1817 0.291504 22.1667C0.291504 19.11 2.7765 16.625 5.83317 16.625C8.88984 16.625 11.3748 19.11 11.3748 22.1667C11.3748 23.1817 11.0948 24.1733 10.5698 25.025C9.58984 26.6817 7.76984 27.7083 5.83317 27.7083ZM5.83317 18.375C3.74484 18.375 2.0415 20.0783 2.0415 22.1667C2.0415 22.855 2.22817 23.5316 2.58984 24.115C3.27817 25.2816 4.4915 25.9583 5.83317 25.9583C7.17484 25.9583 8.38817 25.27 9.0765 24.1267C9.43817 23.5317 9.62484 22.8667 9.62484 22.1667C9.62484 20.0783 7.9215 18.375 5.83317 18.375Z" fill="#007C92"/>
<path id="Vector_3" d="M7.57139 23.0183H4.09473C3.61639 23.0183 3.21973 22.6216 3.21973 22.1433C3.21973 21.665 3.61639 21.2683 4.09473 21.2683H7.58306C8.06139 21.2683 8.45806 21.665 8.45806 22.1433C8.45806 22.6216 8.06139 23.0183 7.57139 23.0183Z" fill="#007C92"/>
<path id="Vector_4" d="M5.8335 24.8034C5.35516 24.8034 4.9585 24.4067 4.9585 23.9284V20.4401C4.9585 19.9617 5.35516 19.5651 5.8335 19.5651C6.31183 19.5651 6.7085 19.9617 6.7085 20.4401V23.9284C6.7085 24.4184 6.31183 24.8034 5.8335 24.8034Z" fill="#007C92"/>
<path id="Vector_5" d="M19.8334 26.5416H8.90173C8.52839 26.5416 8.20173 26.3083 8.07339 25.97C7.94506 25.62 8.05006 25.235 8.33006 25.0016C8.61006 24.7683 8.86673 24.465 9.05339 24.1383C9.42673 23.5433 9.61339 22.8666 9.61339 22.1783C9.61339 20.09 7.91006 18.3866 5.82172 18.3866C4.73672 18.3866 3.69839 18.8533 2.97506 19.6816C2.73006 19.95 2.34506 20.055 2.00673 19.9266C1.66839 19.7983 1.43506 19.4716 1.43506 19.11V14C1.43506 10.4066 3.65173 7.80497 7.09339 7.3733C7.40839 7.32663 7.77006 7.29163 8.14339 7.29163H19.8101C20.0901 7.29163 20.4517 7.30329 20.8251 7.36162C24.2667 7.75829 26.5184 10.3716 26.5184 14V19.8333C26.5417 23.8466 23.8467 26.5416 19.8334 26.5416ZM10.7101 24.7916H19.8334C22.8434 24.7916 24.7917 22.8433 24.7917 19.8333V14C24.7917 11.27 23.1934 9.3916 20.6034 9.08827C20.3234 9.0416 20.0784 9.04163 19.8334 9.04163H8.16673C7.88672 9.04163 7.61839 9.06494 7.35006 9.09994C4.78339 9.42661 3.20839 11.2933 3.20839 14V17.29C4.00173 16.8583 4.91173 16.625 5.83339 16.625C8.89006 16.625 11.3751 19.11 11.3751 22.1666C11.3751 23.0883 11.1417 23.9983 10.7101 24.7916Z" fill="#007C92"/>
<path id="Vector_6" d="M25.6668 20.125H22.1668C20.3935 20.125 18.9585 18.69 18.9585 16.9167C18.9585 15.1434 20.3935 13.7084 22.1668 13.7084H25.6668C26.1452 13.7084 26.5418 14.105 26.5418 14.5834C26.5418 15.0617 26.1452 15.4584 25.6668 15.4584H22.1668C21.3618 15.4584 20.7085 16.1117 20.7085 16.9167C20.7085 17.7217 21.3618 18.375 22.1668 18.375H25.6668C26.1452 18.375 26.5418 18.7717 26.5418 19.25C26.5418 19.7284 26.1452 20.125 25.6668 20.125Z" fill="#007C92"/>
</g>
</g>
</svg>
