<svg width="16" height="16" viewBox="0 0 16 16" fill="none" xmlns="http://www.w3.org/2000/svg">
<g id="cancel-close-delete-exit-minus-remove-svgrepo-com 1" clip-path="url(#clip0_552_2813)">
<path id="Vector" d="M4.45714 8.57153C4.20467 8.57153 4 8.36685 4 8.11439V7.88582C4 7.63336 4.20467 7.42868 4.45714 7.42868H11.5429C11.7953 7.42868 12 7.63336 12 7.88582V8.11439C12 8.36685 11.7953 8.57153 11.5429 8.57153H4.45714Z" fill="#333333"/>
<path id="Vector_2" fill-rule="evenodd" clip-rule="evenodd" d="M7.99986 15.4285C3.89718 15.4285 0.571289 12.1026 0.571289 7.9999C0.571289 3.89721 3.89718 0.571323 7.99986 0.571323C12.1025 0.571323 15.4284 3.89721 15.4284 7.9999C15.4284 12.1026 12.1025 15.4285 7.99986 15.4285ZM1.71415 7.9999C1.71415 11.4714 4.52888 14.2856 7.99986 14.2856C11.4708 14.2856 14.2856 11.4714 14.2856 7.9999C14.2856 4.52835 11.4708 1.71418 7.99986 1.71418C4.52888 1.71418 1.71415 4.52835 1.71415 7.9999Z" fill="#333333"/>
</g>
<defs>
<clipPath id="clip0_552_2813">
<rect width="16" height="16" fill="white" transform="matrix(1 0 0 -1 0 16)"/>
</clipPath>
</defs>
</svg>
